# xmcd
#
# Track frame offsets: 
#        175
#        19000
#        40425
#        59500
#        79150
#        91650
#        115325
#        130562
#        150700
#        171762
#        191400
#        202262
#        217075
#        231750
#
# Disc length: 3359 seconds
#
# Revision: 1
# Processed by: cddbd v1.5.2PL0 Copyright (c) Steve Scherf et al.
# Submitted via: ExactAudioCopy v1.0b4
#
DISCID=be0d1d0e
DTITLE=Various Artist - Не отрекаются, любя
DYEAR=1995
DGENRE=Pop
TTITLE0=Алла Пугачёва - Не отрекаются, любя
TTITLE1=Алла Пугачёва - Летние дожди
TTITLE2=ВИА "Синяя птица" - Когда-нибудь
TTITLE3=Гинтаре Яутакайте - Двух дорог пересеченье
TTITLE4=Владимир Мозенков - Старая Одесса
TTITLE5=Лев Лещенко - Были юными и счастливыми
TTITLE6=Валентина Толкунова - Если б не было войны
TTITLE7=Наталья Могилевская - Иерусалим
TTITLE8=Алла Пугачёва - Ты на свете есть
TTITLE9=Ольга Пирагс - Спасибо, музыка, тебе...
TTITLE10=Игорь Скляр, Ольга Пирагс - Старый рояль
TTITLE11=Алла Пугачёва - А знаешь, всё ещё будет
TTITLE12=Михаил Боярский - На миг оглянуться
TTITLE13=Алла Пугачёва - Монолог
EXTD=
EXTT0=
EXTT1=
EXTT2=
EXTT3=
EXTT4=
EXTT5=
EXTT6=
EXTT7=
EXTT8=
EXTT9=
EXTT10=
EXTT11=
EXTT12=
EXTT13=
PLAYORDER=
